<svg id="Layer_1" data-name="Layer 1" xmlns="http://www.w3.org/2000/svg" viewBox="0 0 205.11 212.5"><defs><style>.cls-1{fill:#1b1464;}.cls-2{font-size:22.34px;fill:#151158;font-family:Broadway;letter-spacing:0.26em;}.cls-3{letter-spacing:0.26em;}.cls-4{letter-spacing:0.23em;}.cls-5{letter-spacing:0.26em;}</style></defs><title>Artboard 1</title><path class="cls-1" d="M53.92,55.47,45.1,54a1.29,1.29,0,0,0-1.5,1.27l.5,72.14a2.57,2.57,0,0,0,2.06,2.5l51.16,10.35a.64.64,0,0,0,.39-1.22L56.23,120.75a2.56,2.56,0,0,1-1.53-2.36L55,56.74A1.28,1.28,0,0,0,53.92,55.47Z"/><path class="cls-1" d="M72.53,45.3,63.23,41a1.28,1.28,0,0,0-1.82,1.17l.56,72a1.26,1.26,0,0,0,.73,1.15L104,134.61a.64.64,0,0,0,.64-1.1L73.77,111.78a1.28,1.28,0,0,1-.54-1l0-64.26A1.29,1.29,0,0,0,72.53,45.3Z"/><path class="cls-1" d="M144.74,41l-9.26,4.29a1.29,1.29,0,0,0-.75,1.18l0,64.24a1.31,1.31,0,0,1-.55,1.07l-29.54,21.72a.64.64,0,0,0,.65,1.1l40-19.29a1.31,1.31,0,0,0,.76-1.17l.55-71.94A1.3,1.3,0,0,0,144.74,41Z"/><path class="cls-1" d="M72.53,45.3,101,61.44c2.19,1.86,1.57,2.45.88,2.19L62.91,48.3c-.45-.17-.72-.48-.7-.81"/><path class="cls-1" d="M135.2,45.3,106.76,61.44c-2.19,1.85-1.58,2.44-.89,2.18l39-15.32c.44-.17.71-.49.69-.81"/><path class="cls-1" d="M153,56.74l.29,61.65a2.55,2.55,0,0,1-1.53,2.36L110.29,139a.64.64,0,0,0,.39,1.22l52.18-10.56a1.27,1.27,0,0,0,1-1.24l.51-73.19A1.29,1.29,0,0,0,162.9,54l-8.82,1.48A1.28,1.28,0,0,0,153,56.74Z"/><text class="cls-2" transform="translate(42.95 161.42)">N<tspan class="cls-3" x="22.23" y="0">aQ</tspan><tspan class="cls-4" x="66.27" y="0">r</tspan><tspan class="cls-5" x="83.24" y="0">aa</tspan></text></svg>